<?xml version="1.0" encoding="UTF-8"?>
<!-- Created with Inkscape (http://www.inkscape.org/) -->
<svg width="857.06" height="444.6" version="1.1" viewBox="0 0 857.06 444.6" xmlns="http://www.w3.org/2000/svg">
 <g transform="matrix(1.3333 0 0 -1.3333 -75.134 606.49)">
  <g transform="scale(.1)">
   <rect transform="scale(1,-1)" x="557.2" y="-4561.3" width="6431.9" height="3361.5" fill="#fff" stroke-linejoin="round" stroke-width="7.4224"/>
   <path d="m5255.7 1294.2v434.91c0 169.23-75.19 243-263.24 243-138.85 0-293.61-41.95-293.61-41.95l5.78-134.51s176.46 11.56 271.93 11.56c57.85 0 85.33-15.91 85.33-78.1v-44.84l-154.74-11.58c-159.12-11.56-253.15-57.85-253.15-221.29 0-153.31 72.33-237.2 224.2-237.2 186.9 0 377.5 80 377.5 80m-193.81 100.79s-79.55-23.15-141.73-23.15c-52.07 0-70.88 34.72-70.88 85.35 0 52.06 30.37 76.66 80.99 80.99l131.62 11.57zm-449.82 199.6c0 222.74-81 377.52-332.66 377.52-251.68 0-332.67-154.78-332.67-377.52 0-222.75 80.99-380.39 332.67-380.39 251.66 0 332.66 157.64 332.66 380.39m-196.7 0c0-140.3-28.93-215.51-135.96-215.51s-135.95 75.21-135.95 215.51 28.92 212.62 135.95 212.62 135.96-72.32 135.96-212.62m-517.52 8.69c0 277.71-95.47 368.83-292.19 368.83-63.63 0-156.19-39.06-156.19-39.06v192.52h-193.83v-891.13s212.62-20.24 282.05-20.24c254.57 0 360.16 78.09 360.16 389.08m-196.72 0c0-156.21-30.37-215.51-163.44-215.51-21.69 0-88.22 5.77-88.22 5.77v386.19s72.33 18.81 130.18 18.81c75.21 0 121.48-49.19 121.48-195.26m-910.76 135.96c0 39.06 17.36 57.86 101.25 57.86 83.91 0 263.24-23.16 263.24-23.16l2.89 160.56s-176.46 36.16-280.6 36.16c-151.86 0-279.14-67.98-279.14-235.77 0-159.09 82.44-196.71 238.65-222.74 133.07-21.7 148.98-36.17 148.98-67.98 0-37.61-24.59-56.4-117.16-56.4-73.77 0-253.13 23.14-253.13 23.14l-5.78-162s170.68-34.71 277.71-34.71c180.81 0 290.73 65.08 290.73 234.3 0 146.09-59.3 195.28-227.09 225.65-133.07 24.58-160.55 31.81-160.55 65.09m-274.53 406.43c0 61.97-51.31 112.23-114.57 112.23-63.3 0-114.63-50.26-114.63-112.23 0-61.98 51.33-112.23 114.63-112.23 63.26 0 114.57 50.25 114.57 112.23m-532.97-914.12h193.81v1012.5h-193.81zm515.29 723.2h-193.82v-723.2h193.82v723.2" fill="#92cb23"/>
   <path d="m6991.4 2188v949.96h-193.81v-292.18s-102.7 20.26-156.21 20.26c-196.72 0-299.42-111.38-299.42-376.06 0-254.57 63.97-381.86 282.05-381.86 174.75 0 367.39 79.88 367.39 79.88m-193.81 115.38s-72.33-21.69-140.3-21.69c-91.13 0-118.61 60.76-118.61 208.29 0 146.07 44.84 208.28 117.17 208.28 62.19 0 141.74-14.48 141.74-14.48zm-503.01 738.72c0 62-51.31 112.25-114.59 112.25-63.3 0-114.61-50.25-114.61-112.25 0-61.97 51.31-112.22 114.61-112.22 63.28 0 114.59 50.25 114.59 112.22m-853.69-547.79c0 144.65 26.05 198.16 164.88 198.16 54.98 0 169.24-11.58 169.24-11.58l5.78 153.31s-147.52 31.84-231.43 31.84c-215.5 0-305.17-115.71-305.17-371.73 0-271.91 85.35-386.19 300.84-386.19 80.99 0 235.76 30.38 235.76 30.38l-5.78 154.77s-112.81-11.58-167.79-11.58c-138.85 0-166.33 50.62-166.33 212.62m-638.17 138.85c0 39.06 17.37 57.86 101.25 57.86 83.89 0 263.25-23.13 263.25-23.13l2.89 160.54s-176.47 36.16-280.61 36.16c-151.87 0-279.14-67.98-279.14-235.77 0-159.1 82.44-196.7 238.65-222.74 133.07-21.7 148.97-54.18 148.97-86 0-70.57-90.8-62.24-129.98-55.07-81.68 14.92-165.37 61.76-278.71 61.76-117.29 0-242.99-61.76-316.82-61.76-104.14 0-135.96 52.84-137.4 139.62h421.48s14.46 60.33 14.46 134.52c0 218.52-98.95 326.89-311.57 326.89-211.17 0-319.65-131.63-319.65-389.08 0-260.36 92.58-368.84 310.98-368.84 134.3 0 223.71 70.04 336.08 70.04 112.34 0 202.3-70.04 323.32-70.04 179.59 0 280.19 65.08 280.19 234.33 0 118.07-59.3 195.24-227.09 225.63-133.07 24.58-160.55 31.82-160.55 65.08m-669.1-81c1.45 109.93 33.26 154.77 125.82 154.77 91.12 0 124.4-37.62 124.4-154.77zm-444.04-426.69h193.83v391.98c0 221.3-52.09 348.59-254.59 348.59-181.37 0-373.17-80.77-373.17-80.77v-659.8h193.83v540.96s63.63 26.04 131.62 26.04c94.01 0 108.48-70.87 108.48-180.79zm-516.74 916.63c0 62-51.31 112.25-114.59 112.25-63.3 0-114.61-50.25-114.61-112.25 0-61.97 51.31-112.22 114.61-112.22 63.28 0 114.59 50.25 114.59 112.22m-17.69-193.43h-193.81v-723.2h193.81zm3121.7 0h-193.8v-723.2h193.8zm-4173.8 563.61m526.95-212.58c132.75 178.3 137.09 374.6-10.84 522.45-40.9 40.66-93.93 75.7-156.07 105.27l0.01 0.05c-2.57 1.22-5.48 1.91-8.55 1.91-11 0-19.92-8.88-19.92-19.81 0-7.84 4.57-14.61 11.21-17.84h-0.04c59.57-28.94 107.71-63.75 140.41-104.69 98.89-123.82 104.45-271.66 13.54-409.66-28.68 64.57-65.47 126.67-111.2 183.32l0.02 0.01c-2.89 3.47-7.24 5.67-12.13 5.67-8.67 0-15.7-6.99-15.7-15.61 0-3.94 1.47-7.53 3.89-10.29l0.02 0.02c47.46-57.12 86.17-121.58 115.23-191.03-95.53-125.33-272.56-240.43-533.81-319.08-102.87-30.98-211.54-55.62-320.7-73.46-69.08 92.77-131.17 202.69-181.13 328.98 177.36 17.86 361.85 64.75 526.74 144.3 21.69 10.47 42.03 22.18 61.07 34.99 7.15 5.01 11.82 13.29 11.82 22.65 0 15.27-12.45 27.63-27.82 27.63-4.68 0-9.14-1.15-13-3.2-26.31-16.35-55.28-30.36-87.11-41.66-161.62-57.44-338.27-89.42-503.23-97.81-28.43 85.78-51.4 178.24-67.52 277.19 66.18 7.36 134.36 11.89 203.5 13.34 9.82 0 17.77 7.91 17.77 17.67 0 9.78-7.95 17.69-17.77 17.69v0.03c-70.96-0.65-140.98-4.43-209.18-11.02-12.81 89.75-20 184.65-20.62 284.51 196.25 32.35 417.5 40.26 616.87 20.47 13.18-0.2 23.34 9.88 23.34 22.18 0 11.57-8.89 21.08-20.25 22.14v0.06c-200.45 22.79-419.93 17.36-619.77-14.11 5.39 335.01 187.99 548.05 389.16 559.17 243.77 13.47 414.3-190.2 478.03-433.73l-0.06-0.02c2.71-9.56 11.56-16.6 22.07-16.6 12.66 0 22.91 10.2 22.91 22.79 0 2.34-0.25 4.31-0.94 6.46-72.79 279.32-280.62 517.72-552.69 484.47-188.11-23.25-475.14-149.86-491.23-647.98-266.45-60.93-476.41-172.7-521.37-329.42-18.145-60.51-17.383-110.58 14.844-171.85-157.17-95.96-242.17-220.72-209.36-362.6 68.985-298.26 559.76-385.72 1098.6-294.65 95.72-107.46 205.45-192.57 324.67-249.26 366.25-153.53 721.66-34.17 682.64 489.94-6.55 72.3-21.64 146.96-46.35 220.02m-1257.4 71.72c-203.77 6.76-374.34 52.97-451.96 134.59 104.61 55.18 239.2 97.6 389.57 124.49 14.73-89.76 35.73-176.43 62.39-259.08m-87.15 574.02c-0.39-93.94 5.99-185.89 18.61-274.96-156.33-24.79-299.08-65.1-416.6-117.98-102.77 185.49 99.083 321.23 397.99 392.94m-570-812.71c-48.399 118.99-2.793 223.91 103.96 308.4 104.49-109.01 329.65-167.52 586.49-163.33 48.67-125.15 110.68-239.5 183.38-339.53-411.57-45.68-798.7 9.72-873.83 194.46m1085.8-267.97c92.05 20.27 184.57 45.53 275.8 75.72 241.33 79.87 421.48 199.43 530.76 331.01 18.15-60.48 29.34-123.83 33.01-188.71 33.03-586.14-468.91-624.61-839.57-218.02" fill="#245680"/>
  </g>
 </g>
</svg>
