<?xml version="1.0" encoding="UTF-8"?>
<!-- Created with Inkscape (http://www.inkscape.org/) -->
<svg width="410.71" height="246.42" version="1.1" viewBox="0 0 410.71 246.42" xmlns="http://www.w3.org/2000/svg">
 <defs>
  <clipPath id="clipPath168">
   <path d="m0 300.47h425.2v-300.47h-425.2z"/>
  </clipPath>
 </defs>
 <g transform="matrix(1.3333 0 0 -1.3333 -78.108 323.53)">
  <rect transform="scale(1,-1)" x="27.896" y="-260.16" width="362.7" height="229.24" fill="#fff"/>
  <path d="m181.79 57.828h-3.08v184.82h3.08z" fill="#a02018"/>
  <path d="m214.19 125.08h-1.561v-8.656h1.561z" fill="#a02018"/>
  <g clip-path="url(#clipPath168)">
   <g transform="translate(221.98 116.43)">
    <path d="m0 0h1.594v8.656h-1.481l0.049-4.052c0.018-1.016 0.131-2.122 0.152-2.315-0.123 0.223-0.527 1.123-1.039 2.006l-2.519 4.361h-1.744v-8.656h1.531l-0.066 4.152c-0.018 1.084-0.065 1.971-0.102 2.414 0.066-0.166 0.645-1.384 1.15-2.238z" fill="#a02018"/>
   </g>
   <g transform="translate(232.44 119.05)">
    <path d="m0 0c0 0.598-0.23 1.176-0.631 1.564-0.394 0.411-1.068 0.709-1.742 0.893l-1.184 0.297c-0.988 0.275-1.369 0.578-1.369 1.117 0 0.691 0.674 1.121 1.682 1.121 0.775 0 1.558-0.228 2.336-0.693l0.707 1.099c-0.774 0.532-1.996 0.86-3.11 0.86-1.929 0-3.293-1.072-3.293-2.596 0-0.447 0.129-0.842 0.381-1.205 0.348-0.523 0.953-0.908 1.737-1.117l1.242-0.315c1.08-0.281 1.529-0.681 1.529-1.296 0-0.436-0.226-0.766-0.64-0.993-0.348-0.197-0.729-0.277-1.299-0.277-0.957 0-1.782 0.227-2.682 0.703l-0.6-1.201c0.977-0.506 2.094-0.774 3.194-0.774 0.892 0 1.662 0.168 2.291 0.51 0.902 0.483 1.451 1.354 1.451 2.303" fill="#a02018"/>
   </g>
   <g transform="translate(240.39 125.08)">
    <path d="m0 0h-6.713v-1.264h2.465v-7.392h1.533v7.392h2.506z" fill="#a02018"/>
   </g>
   <path d="m243.58 125.08h-1.561v-8.656h1.561z" fill="#a02018"/>
   <g transform="translate(247.91 116.43)">
    <path d="m0 0h1.531v7.393h2.498l0.219 1.263h-6.713v-1.263h2.465z" fill="#a02018"/>
   </g>
   <g transform="translate(259.39 117.1)">
    <path d="m0 0c0.59 0.537 0.773 1.018 0.773 2.402v5.577h-1.568v-5.512c0-0.842-0.08-1.139-0.33-1.465-0.264-0.348-0.768-0.545-1.445-0.545-0.836 0-1.461 0.326-1.696 0.891-0.095 0.23-0.132 0.691-0.132 1.306v5.325h-1.545v-5.606c0-0.978 0.08-1.338 0.343-1.836 0.432-0.754 1.352-1.365 3.014-1.365 1.197 0 2.004 0.281 2.586 0.828" fill="#a02018"/>
   </g>
   <g transform="translate(265.94 116.43)">
    <path d="m0 0v7.393h2.5l0.217 1.263h-6.717v-1.263h2.465v-7.393z" fill="#a02018"/>
   </g>
   <g transform="translate(275.25 118.68)">
    <path d="m0 0c-0.309-0.861-0.975-1.25-1.945-1.25-0.871 0-1.532 0.293-1.842 0.84-0.348 0.59-0.549 1.449-0.549 2.599 0 1.018 0.139 1.725 0.449 2.239 0.342 0.556 1.022 0.904 1.813 0.904 0.92 0 1.576-0.312 1.974-1.088 0.264-0.539 0.377-1.234 0.377-2.307 0-0.89-0.066-1.41-0.277-1.937m1.135-1.074c0.607 0.74 0.886 1.728 0.886 3.129 0 1.386-0.312 2.402-0.945 3.131-0.719 0.882-1.724 1.351-3.121 1.351-2.482 0-3.998-1.685-3.998-4.453 0-1.43 0.381-2.494 1.201-3.369 0.725-0.77 1.596-1.121 2.897-1.121 1.431 0 2.355 0.424 3.08 1.332" fill="#a02018"/>
   </g>
   <g transform="translate(289.17 119.05)">
    <path d="m0 0c0 0.598-0.234 1.176-0.623 1.564-0.397 0.411-1.07 0.709-1.744 0.893l-1.186 0.297c-0.992 0.275-1.373 0.578-1.373 1.117 0 0.691 0.678 1.121 1.684 1.121 0.777 0 1.564-0.228 2.334-0.693l0.703 1.099c-0.766 0.532-1.983 0.86-3.106 0.86-1.923 0-3.289-1.072-3.289-2.596 0-0.447 0.125-0.842 0.381-1.205 0.344-0.523 0.951-0.908 1.737-1.117l1.24-0.315c1.088-0.281 1.527-0.681 1.527-1.296 0-0.436-0.23-0.766-0.64-0.993-0.34-0.197-0.725-0.277-1.301-0.277-0.951 0-1.772 0.227-2.676 0.703l-0.594-1.201c0.967-0.506 2.088-0.774 3.194-0.774 0.886 0 1.662 0.168 2.285 0.51 0.908 0.483 1.447 1.354 1.447 2.303" fill="#a02018"/>
   </g>
   <g transform="translate(296.46 119.57)">
    <path d="m0 0c0-0.842-0.084-1.139-0.334-1.465-0.264-0.347-0.779-0.545-1.449-0.545-0.836 0-1.459 0.326-1.69 0.891-0.105 0.23-0.131 0.691-0.131 1.306v5.325h-1.552v-5.606c0-0.978 0.08-1.338 0.351-1.836 0.428-0.754 1.344-1.365 3.006-1.365 1.201 0 2.008 0.281 2.59 0.828 0.59 0.537 0.766 1.018 0.766 2.403v5.576h-1.557z" fill="#a02018"/>
   </g>
   <g transform="translate(302.27 123.83)">
    <path d="m0 0h1.135c0.707 0 1.183-0.084 1.527-0.363 0.297-0.248 0.469-0.596 0.469-1.084 0-0.42-0.113-0.758-0.363-1.039-0.274-0.28-0.666-0.436-1.391-0.436h-1.377zm0-4.152h1.41c1.084 0 1.6 0.131 2.223 0.595 0.717 0.43 1.185 1.184 1.185 2.202 0 0.962-0.49 1.744-1.332 2.193-0.509 0.293-0.953 0.41-2.506 0.41h-2.515v-8.656h1.535z" fill="#a02018"/>
   </g>
   <g transform="translate(314.66 117.74)">
    <path d="m0 0h-3.996v2.566h3.039v1.264h-3.057v2.248h3.672l0.213 1.264h-5.433v-8.656h5.562z" fill="#a02018"/>
   </g>
   <g transform="translate(319.35 121.21)">
    <path d="m0 0h-0.84v2.631h0.953c0.494 0 0.842-0.024 1.135-0.125 0.531-0.168 0.842-0.598 0.842-1.139 0-0.455-0.164-0.803-0.449-1.015-0.327-0.252-0.786-0.352-1.641-0.352m4.229-4.785c-0.03 0.051-0.788 1.064-1.29 1.779-0.457 0.608-0.951 1.248-1.23 1.594-0.117 0.146-0.281 0.299-0.428 0.398 1.465 0.059 2.403 0.989 2.403 2.414 0 0.805-0.381 1.504-0.989 1.944-0.509 0.377-1.179 0.527-2.49 0.527h-2.582v-8.656h1.537v3.701c0.293-0.029 0.506-0.098 0.748-0.314 0.436-0.327 0.879-0.875 1.615-2.055 0.299-0.479 0.582-0.908 0.827-1.332z" fill="#a02018"/>
   </g>
   <path d="m325.55 116.43h1.564v8.656h-1.564z" fill="#a02018"/>
   <g transform="translate(331.62 118.27)">
    <path d="m0 0c-0.348 0.59-0.543 1.449-0.543 2.6 0 1.017 0.129 1.724 0.447 2.238 0.334 0.557 1.018 0.904 1.809 0.904 0.92 0 1.578-0.312 1.975-1.088 0.259-0.539 0.376-1.234 0.376-2.306 0-0.891-0.066-1.411-0.281-1.938-0.312-0.861-0.974-1.25-1.941-1.25-0.871 0-1.531 0.293-1.842 0.84m4.918-0.664c0.615 0.74 0.893 1.728 0.893 3.129 0 1.387-0.315 2.402-0.944 3.131-0.722 0.883-1.722 1.351-3.125 1.351-2.486 0-3.998-1.685-3.998-4.453 0-1.43 0.381-2.494 1.201-3.369 0.729-0.77 1.6-1.121 2.897-1.121 1.435 0 2.351 0.424 3.076 1.332" fill="#a02018"/>
   </g>
   <g transform="translate(341.24 123.84)">
    <path d="m0 0h0.961c0.49 0 0.838-0.023 1.131-0.125 0.531-0.168 0.846-0.598 0.846-1.139 0-0.455-0.165-0.802-0.444-1.015-0.332-0.252-0.801-0.352-1.65-0.352h-0.844zm0-3.715c0.297-0.029 0.514-0.098 0.762-0.314 0.433-0.326 0.873-0.875 1.615-2.055 0.293-0.478 0.576-0.908 0.82-1.332h1.875c-0.029 0.051-0.787 1.064-1.281 1.779-0.465 0.608-0.955 1.248-1.238 1.594-0.11 0.147-0.278 0.299-0.424 0.398 1.465 0.059 2.398 0.989 2.398 2.415 0 0.804-0.377 1.503-0.982 1.943-0.512 0.377-1.186 0.527-2.486 0.527h-2.582v-8.656h1.523z" fill="#a02018"/>
   </g>
   <g transform="translate(353.32 123.84)">
    <path d="m0 0h1.025c0.891 0 1.469-0.176 1.979-0.791 0.461-0.539 0.641-1.275 0.641-2.414 0-1.824-0.69-2.633-1.616-2.863-0.23-0.067-0.539-0.1-0.816-0.1h-1.213zm2.523-7.307c1.071 0.239 2.817 1.424 2.817 4.219 0 2.57-1.197 3.633-2.486 4.035-0.708 0.293-1.549 0.293-2.454 0.293h-1.941v-8.656h2.52c0.644 0 1.167 0.018 1.544 0.109" fill="#a02018"/>
   </g>
   <g transform="translate(366.49 117.74)">
    <path d="m0 0h-3.996v2.566h3.039v1.264h-3.064v2.248h3.679l0.205 1.264h-5.429v-8.656h5.566z" fill="#a02018"/>
   </g>
   <g transform="translate(214.16 107.81)">
    <path d="m0 0h3.043v1.273h-3.051v2.239h3.658l0.217 1.263h-5.424v-8.654h5.553v1.315h-3.996z" fill="#a02018"/>
   </g>
   <g transform="translate(225.79 108.53)">
    <path d="m0 0c0.021-1.018 0.135-2.123 0.15-2.318-0.117 0.23-0.527 1.121-1.037 2.004l-2.515 4.365h-1.75v-8.655h1.531l-0.063 4.147c-0.015 1.08-0.07 1.977-0.099 2.42 0.066-0.172 0.644-1.381 1.154-2.24l2.465-4.327h1.6v8.655h-1.483z" fill="#a02018"/>
   </g>
   <g transform="translate(233.52 107.39)">
    <path d="m0 0h1.736v-2.168c-0.334-0.168-0.791-0.264-1.285-0.264-0.576 0-1.154 0.151-1.594 0.411-0.746 0.451-1.121 1.347-1.121 2.779 0 0.824 0.112 1.519 0.346 2.092 0.322 0.804 1.084 1.234 2.189 1.234 0.872 0 1.432-0.264 2.073-0.689l0.773 0.97c-0.875 0.645-1.783 0.942-2.861 0.942-1.01 0-1.83-0.256-2.555-0.745-1.103-0.771-1.656-1.992-1.656-3.701 0-1.381 0.355-2.406 1.135-3.209 0.748-0.808 1.795-1.234 3.183-1.234 1.094 0 2.061 0.234 2.918 0.728v4.114h-3.508z" fill="#a02018"/>
   </g>
   <g transform="translate(240.87 107.81)">
    <path d="m0 0h3.041v1.273h-3.059v2.239h3.666l0.223 1.263h-5.437v-8.654h5.566v1.315h-4z" fill="#a02018"/>
   </g>
   <g transform="translate(252.49 108.53)">
    <path d="m0 0c0.021-1.018 0.139-2.123 0.156-2.318-0.113 0.23-0.527 1.121-1.035 2.004l-2.527 4.365h-1.737v-8.655h1.532l-0.067 4.147c-0.021 1.08-0.072 1.977-0.101 2.42 0.064-0.172 0.644-1.381 1.152-2.24l2.469-4.327h1.594v8.655h-1.481z" fill="#a02018"/>
   </g>
   <g transform="translate(261.81 109.14)">
    <path d="m0 0h-3.457v3.439h-1.543v-8.654h1.543v3.945h3.457v-3.945h1.549v8.654h-1.549z" fill="#a02018"/>
   </g>
   <g transform="translate(267.8 107.42)">
    <path d="m0 0c0.066 0.23 1.201 3.549 1.252 3.783 0.053-0.234 1.137-3.49 1.238-3.783zm0.414 5.178-3.227-8.668h1.598l0.82 2.256h3.245l0.82-2.256h1.695l-3.152 8.668z" fill="#a02018"/>
   </g>
   <g transform="translate(277.19 108.72)">
    <path d="m0 0h-0.836v2.633h0.949c0.502 0 0.85-0.029 1.143-0.135 0.531-0.166 0.838-0.586 0.838-1.133 0-0.457-0.164-0.808-0.44-1.017-0.336-0.246-0.791-0.348-1.654-0.348m1.721-1.414c-0.117 0.143-0.289 0.297-0.432 0.396 1.465 0.059 2.402 0.985 2.402 2.416 0 0.807-0.38 1.495-0.986 1.942-0.512 0.381-1.189 0.527-2.49 0.527h-2.588v-8.654h1.537v3.703c0.293-0.033 0.51-0.103 0.758-0.314 0.426-0.331 0.869-0.873 1.615-2.063 0.293-0.469 0.572-0.9 0.82-1.326h1.879c-0.033 0.041-0.791 1.066-1.285 1.777-0.465 0.604-0.953 1.248-1.23 1.596" fill="#a02018"/>
   </g>
   <path d="m283.56 103.93h1.564v8.654h-1.564z" fill="#a02018"/>
   <g transform="translate(289.62 107.42)">
    <path d="m0 0c0.066 0.23 1.201 3.549 1.25 3.783 0.051-0.234 1.131-3.49 1.234-3.783zm0.404 5.178-3.222-8.668h1.595l0.832 2.256h3.241l0.82-2.256h1.691l-3.16 8.668z" fill="#a02018"/>
   </g>
   <g transform="translate(303.86 105.28)">
    <path d="m0 0c-0.234-0.068-0.545-0.102-0.82-0.102h-1.201v6.174h1.011c0.893 0 1.465-0.183 1.977-0.791 0.455-0.535 0.644-1.285 0.644-2.414 0-1.834-0.691-2.633-1.611-2.867m0.82 7.01c-0.713 0.297-1.552 0.297-2.453 0.297h-1.937v-8.655h2.515c0.645 0 1.162 0.016 1.543 0.118 1.08 0.224 2.823 1.414 2.823 4.209 0 2.566-1.206 3.642-2.491 4.031" fill="#a02018"/>
   </g>
   <g transform="translate(311.17 107.81)">
    <path d="m0 0h3.047v1.273h-3.063v2.239h3.67l0.217 1.263h-5.435v-8.654h5.566v1.315h-4.002z" fill="#a02018"/>
   </g>
   <g transform="translate(322.88 112.58)">
    <path d="m0 0h-1.557v-8.654h4.967l0.248 1.267h-3.658z" fill="#a02018"/>
   </g>
   <path d="m328.18 103.93h1.564v8.654h-1.564z" fill="#a02018"/>
   <g transform="translate(336.41 109.01)">
    <path d="m0 0-1.182 0.293c-0.99 0.285-1.371 0.574-1.371 1.117 0 0.692 0.678 1.123 1.686 1.123 0.762 0 1.553-0.226 2.332-0.691l0.703 1.101c-0.766 0.528-1.984 0.858-3.105 0.858-1.93 0-3.295-1.067-3.295-2.6 0-0.443 0.13-0.84 0.38-1.201 0.348-0.531 0.956-0.904 1.747-1.121l1.238-0.311c1.084-0.279 1.523-0.673 1.523-1.304 0-0.428-0.226-0.758-0.644-0.985-0.344-0.191-0.725-0.279-1.293-0.279-0.959 0-1.78 0.23-2.688 0.707l-0.59-1.201c0.971-0.516 2.088-0.77 3.194-0.77 0.886 0 1.658 0.162 2.285 0.506 0.904 0.473 1.453 1.352 1.453 2.307 0 0.59-0.234 1.162-0.633 1.56-0.388 0.411-1.066 0.707-1.74 0.891" fill="#a02018"/>
   </g>
   <g transform="translate(345.38 105.36)">
    <path d="m0 0c-0.293-0.135-0.707-0.201-1.248-0.201h-1.465v2.633h1.494c0.399 0 0.858-0.047 1.157-0.182 0.392-0.166 0.726-0.527 0.726-1.133 0-0.49-0.271-0.937-0.664-1.117m-2.734 5.941h1.353c0.473 0 0.908-0.07 1.188-0.234 0.293-0.176 0.505-0.488 0.505-0.898 0-0.205-0.044-0.381-0.128-0.545-0.246-0.444-0.594-0.578-1.473-0.578h-1.445zm4.283-3.296c-0.315 0.25-0.709 0.431-1.182 0.509 0.373 0.102 0.699 0.285 0.947 0.516 0.415 0.359 0.649 0.85 0.649 1.385 0 0.886-0.615 1.607-1.504 1.937-0.459 0.164-0.869 0.231-1.924 0.231h-2.779v-8.655h3.025c0.955 0 1.414 0.041 2.01 0.243 0.953 0.369 1.564 1.222 1.564 2.179 0 0.655-0.285 1.26-0.806 1.655" fill="#a02018"/>
   </g>
   <g transform="translate(355.55 106.19)">
    <path d="m0 0c-0.314-0.863-0.971-1.256-1.937-1.256-0.876 0-1.534 0.297-1.85 0.842-0.344 0.59-0.541 1.447-0.541 2.594 0 1.025 0.135 1.732 0.439 2.24 0.348 0.56 1.026 0.908 1.817 0.908 0.916 0 1.574-0.31 1.97-1.09 0.27-0.543 0.381-1.23 0.381-2.301 0-0.886-0.062-1.419-0.279-1.937m-2.043 6.529c-2.486 0-4-1.679-4-4.441 0-1.436 0.385-2.502 1.205-3.369 0.719-0.78 1.598-1.121 2.901-1.121 1.425 0 2.347 0.425 3.076 1.33 0.611 0.736 0.882 1.724 0.882 3.127 0 1.384-0.31 2.398-0.933 3.131-0.725 0.882-1.729 1.343-3.131 1.343" fill="#a02018"/>
   </g>
   <g transform="translate(361.25 107.42)">
    <path d="m0 0c0.066 0.23 1.201 3.549 1.25 3.783 0.051-0.234 1.135-3.49 1.23-3.783zm2.205 5.178h-1.795l-3.223-8.668h1.598l0.82 2.256h3.241l0.824-2.256h1.691z" fill="#a02018"/>
   </g>
   <path d="m212.6 134.55h12.818v58.585h-12.818z" fill="#a02018"/>
   <g transform="translate(263.02 170.46)">
    <path d="m0 0-7.379 1.934c-5.094 1.351-6.764 2.871-6.764 5.901 0 3.963 3.516 6.742 8.526 6.742 4.57 0 8.693-1.264 14.234-4.466l5.797 8.425c-5.361 3.713-12.916 5.901-20.387 5.901-12.916 0-21.873-7.42-21.873-18.118 0-3.285 0.875-6.319 2.549-8.935 2.197-3.536 5.973-5.818 12.037-7.412l6.768-1.775c5.445-1.347 7.99-3.792 7.99-7.588 0-5.217-3.687-8.001-10.719-8.001-6.152 0-11.07 1.85-16.779 4.717l-4.57-9.191c6.152-3.369 13.883-5.303 20.822-5.303 15.201 0 25.217 7.834 25.217 19.721 0 8.688-5.446 14.832-15.469 17.448" fill="#a02018"/>
   </g>
   <g transform="translate(300.19 160.35)">
    <path d="m0 0h17.311v9.605h-17.481v13.578h19.414l3.076 9.609h-34.791v-58.585h35.578v10.119h-23.107z" fill="#a02018"/>
   </g>
   <g transform="translate(344.74 144.33)">
    <path d="m0 0v48.808h-12.564v-58.585h31.357l3.08 9.777z" fill="#a02018"/>
   </g>
   <g transform="translate(178.71 120.5)">
    <path d="m0 0c-12.313-14.334-30.535-23.463-50.826-23.463-36.93 0-67.059 30.127-67.059 67.082 0 36.918 30.129 67.039 67.059 67.039 20.291 0 38.513-9.119 50.826-23.458v3.369c-12.676 13.711-30.77 22.337-50.826 22.337-38.178 0-69.307-31.126-69.307-69.287 0-38.195 31.129-69.328 69.307-69.328 20.056 0 38.15 8.629 50.826 22.344z" fill="#a02018"/>
   </g>
   <g transform="translate(129.53 196.86)">
    <path d="m0 0-0.305 0.46v-0.711c-1.519-1.264-2.918-2.679-4.185-4.189l-4.846 3.314-0.896-1.297-0.235 0.196 3.252 6.228h-4.721v26.145c1.7 0.281 3.411 0.49 5.153 0.628v-33.632l1.351-0.921v34.645c1.256 0.075 2.524 0.11 3.791 0.11 0.457 0 0.897 0 1.336-0.013v-24.108l-2.929-1.913zm6.877-4.44c3.471 2.322 7.508 3.879 11.81 4.39l-0.33-20.257c-1.314-0.712-2.384-1.833-3.043-3.185l-15.162 12.514c1.84 2.553 4.125 4.776 6.725 6.538m14.627-29.352v-18.238c-0.719-0.213-1.352-0.645-1.817-1.215-4.724 0.373-9.101 1.969-12.81 4.478-2.494 1.691-4.688 3.805-6.471 6.203l6.471 3.625 11.209 6.194c0.996-0.608 2.18-0.988 3.418-1.047m-0.293-27.246c1.014-0.02 2.043-4e-3 3.035 0.068v-30.029c-6.211-2.772-12.945-4.588-19.998-5.244 0.879 1.055 1.658 2.205 2.332 3.457 0.201 0.377 0.389 0.765 0.568 1.15h9.727c2.687 0 5.973 2.34 4.211 5.655l-15.402 28.953c0.398-0.217 0.796-0.422 1.193-0.616 1.461-0.685 2.963-1.304 4.496-1.794l-1.197-5.735 7.064-1.476 1.201 5.767c0.916-0.109 1.832-0.156 2.77-0.156m5.103 1.875h4.411v-28.471c-1.432-0.849-2.897-1.646-4.411-2.383zm6.508 0h4.41v-24.057c-1.425-1.095-2.9-2.142-4.41-3.113zm6.479 0h4.428v-18.281c-1.407-1.436-2.889-2.803-4.428-4.092zm-41.338-5.549-20.914 12.576 1.779 3.373 4.307 8.183v14.619c0 1.038-0.34 1.983-0.922 2.745l13.627-0.075c-0.539-0.753-0.861-1.67-0.861-2.67v-14.628l24.583-46.205c0.788-1.48-0.421-3.113-2.687-3.113h-9.035c3.26 9.408-0.985 19.834-9.877 25.195m-28.129-8.467c-2.684-5.039-3.039-10.715-1.479-15.808-2.802 1.511-5.486 3.232-8.031 5.123l13.524 25.652 7.148-5.328c-4.637-1.674-8.664-4.992-11.162-9.639m-10.891-9.617c-0.451 0.356-0.894 0.711-1.33 1.074l2.129 0.457zm-8.265 7.797 1.787 2.377 8.408-6.508-0.113-0.213-4.725-1.01c-1.892 1.674-3.68 3.465-5.357 5.354m-6.563 8.822 7.028-5.431-1.579-2.102c-1.992 2.377-3.816 4.889-5.449 7.533m-2.959 5.332 6.951 7.02 10.895-7.363-6.856-9.098-10.195 7.889c-0.267 0.509-0.535 1.033-0.795 1.552m-1.084 2.315-0.105 8.672h2.281l4.457-3.014-6.307-6.373c-0.113 0.238-0.22 0.476-0.326 0.715m-0.187 15.15h1.777l-1.754-1.778zm-0.069 5.499 4.42-2.9-0.523-0.532h-3.846zm-0.091 7.48h0.765l2.08-1.34-2.791-3.047zm-0.075 6.423 1.661-1.133-1.631-1.708zm-0.068 6.01 0.762-0.786-0.744-1.084zm-0.062 4.575 1.464-0.862 0.795-2.398-0.476-0.7-1.758 1.822zm-0.038 3.382 0.725-1.858-0.713 0.423zm-2.527-39.847h1.348l0.052-4.391c-0.517 1.439-0.982 2.9-1.4 4.391m-1.445 6.478h2.717l0.05-4.406h-1.867c-0.344 1.451-0.648 2.916-0.9 4.406m-0.762 6.504h3.398l0.055-4.437h-3.01c-0.195 1.457-0.345 2.943-0.443 4.437m-0.137 4.131c0 0.778 0.02 1.565 0.049 2.344h3.408l0.049-4.408h-3.465c-0.029 0.687-0.041 1.369-0.041 2.064m0.616 8.822h2.765l0.051-4.411h-3.273c0.105 1.485 0.251 2.946 0.457 4.411m2.619 11.195 0.113-9.124h-2.406c0.543 3.119 1.314 6.174 2.293 9.124m14.033 23.518v-32.642h-5.994l-5.809 14.879c2.934 6.579 6.936 12.573 11.803 17.763m0.146-60.648h2.996l3.508-8.998-9.228 6.236zm-2.339 0-1.791-1.805-2.674 1.805zm-1.487 6.478 4.793-3.147-1.256-1.259h-9.576l-1.51 1.016 3.352 3.39zm-0.111 6.504-2.654-2.691-4.102 2.691zm-4.094 4.219 3.318-2.152h-5.289zm-0.189 2.256-0.092-0.101-0.154 0.101zm3.629 0 1.302-3.345-3.607 2.332 0.932 1.013zm4.445 2.067h-3.469l-0.135 0.352 0.067 0.079-0.129 0.088-1.524 3.892h5.19zm-0.942-6.475-1.724 4.408h15.271l0.063-4.408zm-2.855-6.504-1.234 0.808 3.244 3.285 1.599-4.093zm4.412-2.067 0.432-1.109-1.692 1.109zm1.721-4.406h-0.131l0.092 0.088zm5.65 0h-3.863l-1.721 4.406h4.164l-1.597-2.168zm4.795 4.406 0.026-1.318-2.198 1.318zm-11.191 2.067-1.725 4.437h12.828l0.059-4.437zm-9.61 16.469 0.871 0.921h0.176l0.867-2.226zm1.959-3.352-0.117-0.138h-5.152l2.148 2.272zm-3.343 9.618 0.212 0.322 0.37-0.921zm0.849-3.274h-3.088l1.28 1.875zm20.746-51.213-2.414-4.575-8.191 6.344 6.533 8.672zm-7.269 23.207h5.838l2.138-1.59 0.274-19.526h0.125l-0.076-0.154zm-3.26 61.983c2.443 2.444 5.068 4.679 7.889 6.692l12.308-10.158v-4.658h-3.615l-10.561 8.701v-35.771l16.026-0.096 1.508-2.9 1.334 2.54c1.406-0.063 2.457-1.176 2.457-2.436v-1.675l-27.346 0.143zm20.197 13.891v-15.197l-11.107 9.158c3.469 2.364 7.185 4.389 11.107 6.039m-4.494-37.036 5.469-10.475-13.484 0.079v30.586l6.283-5.169h-6.123zm5.842 18.562 4.289-3.541h-4.289zm0 19.03c1.674 0.657 3.381 1.251 5.127 1.771v-22.868l-5.127 4.226zm22.144-54.291v1.758c0 1.302 1.026 2.641 2.506 2.641h0.918l2.674-0.021-2.674 2.205-0.472 0.381-14.202 11.698 2.77 5.324 29.197-24.086zm-17.357 6.964 5.086 9.735 0.234 0.457 12.375-10.192zm16.83-8.626 12.477-0.062-2.303-1.26-9.961-5.567c-0.08 0.189-0.143 0.374-0.213 0.566zm-21.269-5.428-1.194 4.408h7.178v-4.408zm-2.303-8.571h2.892l0.985-3.653zm-6.035 8.571h-0.887l-0.063 4.408h5.637zm2.427 0 3.336 3.131 0.85-3.131zm5.207-3.792 0.733-2.712h-4.006zm-4.767-1.783-3.184 2.997 0.543 0.511h6.873zm-3.611-2.996-0.022-0.021v0.021zm-0.051 2.067-0.03 2.123 2.249-2.123zm0.234-17.088-0.078 5.697 3.359-2.504zm2.061-6.077-1.918-3.644-0.084 5.549zm-1.797 4.002 4.369 4.26 1.281-0.949-3.047-5.789zm8.517 10.618-0.783-0.766-1.267 0.766zm-5.49 2.072-3.467 2.079v0.163l2.604 2.164h1.75l4.666-4.406zm9.885 4.406-1.303-2.474-0.656 2.474zm-2.527 2.067-1.198 4.437h5.432v-3.281l-0.615-1.156zm4.406 70.044c1.678 0.461 3.387 0.859 5.127 1.185v-25.915h-4.729l-0.398 0.331zm44.314-28.911c4.084-0.644 7.885-2.222 11.153-4.491 7.06-4.913 11.652-13.158 11.498-22.387-0.026-1.188-0.131-2.364-0.303-3.503h-12.885l-6.346 3.809v0.046c0.022 2.603-1.347 4.951-3.468 6.257zm-27.545 33.411c-36.365 0-65.996-29.657-65.996-65.976 0-36.361 29.631-66.018 65.996-66.018 20.43 0 38.707 9.401 50.827 24.069v3.595c-1.081-1.418-2.194-2.816-3.389-4.138v16.074h3.389v1.67l-28.631-8e-3 -8e-3 1.98c0 1.067 0.898 1.975 1.971 1.975h26.668v1.658h-26.016v19.67h26.016v27.941l-0.762-0.49c-1.348 1.628-2.832 3.13-4.436 4.487l3.319 4.838-5.944 4.064-3.314-4.847c-0.334 0.167-0.666 0.327-0.992 0.511-1.561 0.762-3.164 1.401-4.825 1.934l1.196 5.713-7.035 1.481-1.198-5.742c-0.916 0.1-1.84 0.154-2.783 0.154-1.201 0.022-2.373 0-3.545-0.104l-1.066 5.738-7.069-1.322 1.075-5.793c-1.711-0.506-3.344-1.147-4.93-1.908l-0.912-0.461-3.186 4.892-3.029-1.974 1.268 0.857v23.174c19.636-0.804 37.015-10.613 48.168-25.363v3.608c-12.12 14.661-30.397 24.061-50.827 24.061" fill="#a02018"/>
   </g>
  </g>
 </g>
</svg>
