<svg width="11.49mm" height="11.21mm" inkscape:version="1.0.1 (3bc2e813f5, 2020-09-07)" sodipodi:docname="drawing.svg" version="1.1" viewBox="0 0 11.49 11.21" xmlns="http://www.w3.org/2000/svg" xmlns:inkscape="http://www.inkscape.org/namespaces/inkscape" xmlns:sodipodi="http://sodipodi.sourceforge.net/DTD/sodipodi-0.dtd">
 <sodipodi:namedview id="base" bordercolor="#666666" borderopacity="1.0" inkscape:current-layer="layer1" inkscape:cx="23.66541" inkscape:cy="38.157573" inkscape:document-rotation="0" inkscape:document-units="mm" inkscape:pageopacity="0.0" inkscape:pageshadow="2" inkscape:window-height="1198" inkscape:window-maximized="0" inkscape:window-width="1267" inkscape:window-x="338" inkscape:window-y="163" inkscape:zoom="7.9195959" pagecolor="#ffffff" showgrid="false"/>
 <g transform="translate(-19.96 -56.38)" inkscape:groupmode="layer" inkscape:label="Layer 1">
  <path d="m25.7 56.38c-3.173 0-5.746 2.573-5.746 5.747 0 2.539 1.646 4.693 3.93 5.453 0.2875 0.05256 0.3923-0.1249 0.3923-0.2773 0-0.1365-0.0049-0.4978-0.0078-0.9772-1.598 0.3471-1.936-0.7705-1.936-0.7705-0.2614-0.6639-0.6382-0.8407-0.6382-0.8407-0.5218-0.3563 0.03951-0.3492 0.03951-0.3492 0.5768 0.04057 0.8802 0.5923 0.8802 0.5923 0.5126 0.8781 1.345 0.6244 1.673 0.4773 0.05221-0.3711 0.2007-0.6244 0.3648-0.768-1.276-0.1453-2.618-0.6382-2.618-2.84 0-0.6276 0.224-1.14 0.5916-1.542-0.05927-0.1453-0.2565-0.7295 0.05644-1.521 0 0 0.4822-0.1545 1.58 0.5888 0.4583-0.1274 0.95-0.1909 1.439-0.1933 0.4882 0.0025 0.9797 0.06597 1.439 0.1933 1.097-0.7433 1.579-0.5888 1.579-0.5888 0.3136 0.7913 0.1164 1.375 0.0575 1.521 0.3683 0.4018 0.5906 0.9144 0.5906 1.542 0 2.208-1.344 2.693-2.624 2.836 0.206 0.1774 0.3898 0.5281 0.3898 1.064 0 0.768-0.0071 1.388-0.0071 1.576 0 0.1538 0.1037 0.3327 0.3951 0.2766 2.282-0.7616 3.927-2.914 3.927-5.452 0-3.174-2.573-5.747-5.747-5.747" fill="#1b1817" fill-rule="evenodd"/>
 </g>
</svg>
