<svg width="11.49mm" height="11.21mm" enable-background="new 0 0 382 382" inkscape:version="1.0.1 (3bc2e813f5, 2020-09-07)" sodipodi:docname="linkedin.svg" version="1.1" viewBox="0 0 382 382" xml:space="preserve" xmlns="http://www.w3.org/2000/svg" xmlns:inkscape="http://www.inkscape.org/namespaces/inkscape" xmlns:sodipodi="http://sodipodi.sourceforge.net/DTD/sodipodi-0.dtd"><sodipodi:namedview bordercolor="#666666" borderopacity="1" gridtolerance="10" guidetolerance="10" inkscape:current-layer="Layer_1" inkscape:cx="191" inkscape:cy="191" inkscape:pageopacity="0" inkscape:pageshadow="2" inkscape:window-height="1377" inkscape:window-maximized="1" inkscape:window-width="2560" inkscape:window-x="-8" inkscape:window-y="-8" inkscape:zoom="3.1544503" objecttolerance="10" pagecolor="#ffffff" showgrid="false"/>
<path d="m347.4 0h-312.9c-19.08 0-34.56 15.47-34.56 34.56v312.9c0 19.08 15.47 34.56 34.56 34.56h312.9c19.08 0 34.56-15.47 34.56-34.56v-312.9c0-19.08-15.47-34.56-34.56-34.56zm-229.2 329.8c0 5.554-4.502 10.06-10.06 10.06h-42.81c-5.554 0-10.06-4.502-10.06-10.06v-179.4c0-5.554 4.502-10.06 10.06-10.06h42.81c5.554 0 10.06 4.502 10.06 10.06v179.4zm-31.46-206.4c-22.46 0-40.67-18.21-40.67-40.67s18.21-40.67 40.67-40.67 40.67 18.21 40.67 40.67-18.21 40.67-40.67 40.67zm255.2 207.2c0 5.106-4.14 9.246-9.246 9.246h-45.93c-5.106 0-9.246-4.14-9.246-9.246v-84.17c0-12.56 3.683-55.02-32.81-55.02-28.31 0-34.05 29.07-35.2 42.11v97.08c0 5.106-4.139 9.246-9.246 9.246h-44.43c-5.106 0-9.246-4.14-9.246-9.246v-181.1c0-5.106 4.14-9.246 9.246-9.246h44.43c5.106 0 9.246 4.14 9.246 9.246v15.66c10.5-15.75 26.1-27.91 59.31-27.91 73.55 0 73.13 68.72 73.13 106.5v86.85z"/>
</svg>